<svg xmlns="http://www.w3.org/2000/svg" xmlns:xlink="http://www.w3.org/1999/xlink" width="500" zoomAndPan="magnify" viewBox="0 0 375 374.999991" height="500" preserveAspectRatio="xMidYMid meet" version="1.0"><defs><clipPath id="9b7abedc3c"><path d="M 15 0 L 360 0 C 363.976562 0 367.792969 1.582031 370.605469 4.394531 C 373.417969 7.207031 375 11.023438 375 15 L 375 360 C 375 363.976562 373.417969 367.792969 370.605469 370.605469 C 367.792969 373.417969 363.976562 375 360 375 L 15 375 C 11.023438 375 7.207031 373.417969 4.394531 370.605469 C 1.582031 367.792969 0 363.976562 0 360 L 0 15 C 0 11.023438 1.582031 7.207031 4.394531 4.394531 C 7.207031 1.582031 11.023438 0 15 0 Z M 15 0 " clip-rule="nonzero"/></clipPath><clipPath id="4fd8eff8be"><path d="M 31.03125 102.929688 L 135.28125 102.929688 L 135.28125 275.429688 L 31.03125 275.429688 Z M 31.03125 102.929688 " clip-rule="nonzero"/></clipPath><clipPath id="4e79b57399"><path d="M 239.714844 101.355469 L 345.464844 101.355469 L 345.464844 276.855469 L 239.714844 276.855469 Z M 239.714844 101.355469 " clip-rule="nonzero"/></clipPath><clipPath id="5fe212e426"><path d="M 0.578125 86.25 L 374.078125 86.25 L 374.078125 288.75 L 0.578125 288.75 Z M 0.578125 86.25 " clip-rule="nonzero"/></clipPath><clipPath id="e9f6360dee"><path d="M 17.941406 97.429688 L 356.941406 97.429688 L 356.941406 281 L 17.941406 281 Z M 17.941406 97.429688 " clip-rule="nonzero"/></clipPath><clipPath id="e12816fd8f"><path d="M 98.136719 95.871094 L 278.886719 95.871094 L 278.886719 276.621094 L 98.136719 276.621094 Z M 98.136719 95.871094 " clip-rule="nonzero"/></clipPath><clipPath id="c58ae6cbe4"><path d="M 110.234375 106.890625 L 264.734375 106.890625 L 264.734375 271.890625 L 110.234375 271.890625 Z M 110.234375 106.890625 " clip-rule="nonzero"/></clipPath></defs><g clip-path="url(#9b7abedc3c)"><rect x="-37.5" width="450" fill="#f4f6ff" y="-37.499999" height="449.999989" fill-opacity="1"/></g><g clip-path="url(#4fd8eff8be)"><path fill="#f4f6ff" d="M 157.664062 102.933594 C 100.101562 102.933594 50.945312 138.734375 31.03125 189.273438 C 50.945312 239.8125 100.101562 275.613281 157.664062 275.613281 C 215.222656 275.613281 264.378906 239.8125 284.296875 189.273438 C 264.378906 138.734375 215.28125 102.933594 157.664062 102.933594 Z M 157.664062 246.832031 C 125.890625 246.832031 100.101562 221.046875 100.101562 189.273438 C 100.101562 157.5 125.890625 131.710938 157.664062 131.710938 C 189.4375 131.710938 215.222656 157.5 215.222656 189.273438 C 215.222656 221.046875 189.4375 246.832031 157.664062 246.832031 Z M 157.664062 154.738281 C 138.609375 154.738281 123.125 170.21875 123.125 189.273438 C 123.125 208.324219 138.609375 223.808594 157.664062 223.808594 C 176.714844 223.808594 192.199219 208.324219 192.199219 189.273438 C 192.199219 170.21875 176.714844 154.738281 157.664062 154.738281 Z M 157.664062 154.738281 " fill-opacity="1" fill-rule="nonzero"/></g><g clip-path="url(#4e79b57399)"><path fill="#f4f6ff" d="M 217.003906 276.855469 C 275.394531 276.855469 325.261719 240.535156 345.464844 189.269531 C 325.261719 138.003906 275.394531 101.683594 217.003906 101.683594 C 158.613281 101.683594 108.746094 138.003906 88.542969 189.269531 C 108.746094 240.535156 158.554688 276.855469 217.003906 276.855469 Z M 217.003906 130.878906 C 249.234375 130.878906 275.394531 157.039062 275.394531 189.269531 C 275.394531 221.5 249.234375 247.660156 217.003906 247.660156 C 184.773438 247.660156 158.613281 221.5 158.613281 189.269531 C 158.613281 157.039062 184.773438 130.878906 217.003906 130.878906 Z M 217.003906 224.304688 C 236.332031 224.304688 252.039062 208.597656 252.039062 189.269531 C 252.039062 169.941406 236.332031 154.234375 217.003906 154.234375 C 197.675781 154.234375 181.96875 169.941406 181.96875 189.269531 C 181.96875 208.597656 197.675781 224.304688 217.003906 224.304688 Z M 217.003906 224.304688 " fill-opacity="1" fill-rule="nonzero"/></g><g clip-path="url(#5fe212e426)"><path fill="#233dff" d="M 189.773438 288.613281 C 126.945312 288.613281 65.128906 257.273438 6.042969 195.460938 L 0.167969 189.3125 L 5.464844 182.660156 C 8.59375 178.730469 83.371094 86.386719 190.277344 86.386719 C 253.265625 86.386719 313.582031 118.65625 369.550781 182.296875 L 374.828125 188.300781 L 369.96875 194.648438 C 367.03125 198.488281 296.792969 288.613281 189.773438 288.613281 Z M 26.316406 188.351562 C 79.652344 241.96875 134.605469 269.140625 189.773438 269.140625 C 271.792969 269.140625 331.917969 208.664062 349.34375 188.941406 C 298.867188 133.808594 245.382812 105.863281 190.277344 105.863281 C 108.332031 105.863281 44.972656 167.902344 26.316406 188.351562 Z M 26.316406 188.351562 " fill-opacity="1" fill-rule="nonzero"/></g><path fill="#233dff" d="M 187.660156 125.320312 C 153.316406 125.320312 125.480469 153.160156 125.480469 187.5 C 125.480469 221.839844 153.316406 249.679688 187.660156 249.679688 C 222.003906 249.679688 249.839844 221.839844 249.839844 187.5 C 249.839844 153.160156 222.003906 125.320312 187.660156 125.320312 Z M 187.660156 213.597656 C 173.246094 213.597656 161.5625 201.914062 161.5625 187.5 C 161.5625 173.085938 173.246094 161.402344 187.660156 161.402344 C 202.074219 161.402344 213.753906 173.085938 213.753906 187.5 C 213.753906 201.914062 202.074219 213.597656 187.660156 213.597656 Z M 187.660156 213.597656 " fill-opacity="1" fill-rule="nonzero"/><g clip-path="url(#e9f6360dee)"><path fill="#233dff" d="M 189.5625 280.992188 C 132.570312 280.992188 76.496094 252.558594 22.902344 196.488281 L 17.570312 190.910156 L 22.375 184.878906 C 25.214844 181.3125 93.042969 97.546875 190.019531 97.546875 C 247.15625 97.546875 301.867188 126.820312 352.636719 184.546875 L 357.425781 189.996094 L 353.019531 195.753906 C 350.355469 199.234375 286.640625 280.992188 189.5625 280.992188 Z M 41.289062 190.042969 C 89.671875 238.679688 139.519531 263.324219 189.5625 263.324219 C 263.964844 263.324219 318.503906 208.46875 334.308594 190.574219 C 288.523438 140.566406 240.007812 115.214844 190.019531 115.214844 C 115.6875 115.214844 58.210938 171.492188 41.289062 190.042969 Z M 41.289062 190.042969 " fill-opacity="1" fill-rule="nonzero"/></g><path fill="#233dff" d="M 187.644531 132.863281 C 156.496094 132.863281 131.242188 158.117188 131.242188 189.269531 C 131.242188 220.417969 156.496094 245.671875 187.644531 245.671875 C 218.796875 245.671875 244.046875 220.417969 244.046875 189.269531 C 244.046875 158.117188 218.796875 132.863281 187.644531 132.863281 Z M 187.644531 212.941406 C 174.570312 212.941406 163.972656 202.34375 163.972656 189.269531 C 163.972656 176.195312 174.570312 165.597656 187.644531 165.597656 C 200.71875 165.597656 211.316406 176.195312 211.316406 189.269531 C 211.316406 202.34375 200.71875 212.941406 187.644531 212.941406 Z M 187.644531 212.941406 " fill-opacity="1" fill-rule="nonzero"/><g clip-path="url(#e12816fd8f)"><path fill="#233dff" d="M 279.121094 186.363281 C 279.121094 187.84375 279.085938 189.324219 279.011719 190.800781 C 278.941406 192.28125 278.832031 193.757812 278.6875 195.230469 C 278.539062 196.707031 278.359375 198.175781 278.140625 199.640625 C 277.925781 201.105469 277.671875 202.5625 277.382812 204.015625 C 277.09375 205.46875 276.769531 206.914062 276.410156 208.351562 C 276.050781 209.785156 275.65625 211.214844 275.226562 212.628906 C 274.792969 214.046875 274.332031 215.453125 273.832031 216.847656 C 273.332031 218.242188 272.800781 219.625 272.234375 220.992188 C 271.667969 222.359375 271.066406 223.714844 270.433594 225.050781 C 269.800781 226.390625 269.132812 227.714844 268.4375 229.019531 C 267.738281 230.324219 267.007812 231.613281 266.246094 232.882812 C 265.484375 234.15625 264.695312 235.40625 263.871094 236.636719 C 263.046875 237.867188 262.195312 239.078125 261.3125 240.269531 C 260.429688 241.457031 259.519531 242.625 258.582031 243.769531 C 257.640625 244.914062 256.675781 246.035156 255.679688 247.132812 C 254.683594 248.230469 253.664062 249.300781 252.617188 250.351562 C 251.570312 251.398438 250.496094 252.417969 249.398438 253.414062 C 248.300781 254.40625 247.183594 255.375 246.035156 256.3125 C 244.890625 257.253906 243.726562 258.164062 242.535156 259.046875 C 241.347656 259.929688 240.136719 260.78125 238.902344 261.605469 C 237.671875 262.425781 236.421875 263.21875 235.152344 263.980469 C 233.882812 264.742188 232.59375 265.472656 231.285156 266.167969 C 229.980469 266.867188 228.660156 267.53125 227.320312 268.167969 C 225.980469 268.800781 224.628906 269.398438 223.257812 269.964844 C 221.890625 270.53125 220.507812 271.066406 219.113281 271.566406 C 217.71875 272.0625 216.316406 272.527344 214.898438 272.957031 C 213.480469 273.386719 212.054688 273.78125 210.617188 274.140625 C 209.179688 274.503906 207.734375 274.828125 206.285156 275.117188 C 204.832031 275.40625 203.371094 275.65625 201.90625 275.875 C 200.441406 276.09375 198.972656 276.273438 197.5 276.417969 C 196.023438 276.5625 194.546875 276.671875 193.070312 276.746094 C 191.589844 276.816406 190.109375 276.855469 188.628906 276.855469 C 187.148438 276.855469 185.667969 276.816406 184.1875 276.746094 C 182.710938 276.671875 181.234375 276.5625 179.757812 276.417969 C 178.285156 276.273438 176.816406 276.09375 175.351562 275.875 C 173.886719 275.65625 172.425781 275.40625 170.976562 275.117188 C 169.523438 274.828125 168.078125 274.503906 166.640625 274.140625 C 165.203125 273.78125 163.777344 273.386719 162.359375 272.957031 C 160.945312 272.527344 159.539062 272.0625 158.144531 271.566406 C 156.75 271.066406 155.367188 270.53125 154 269.964844 C 152.632812 269.398438 151.277344 268.800781 149.9375 268.167969 C 148.601562 267.53125 147.277344 266.867188 145.972656 266.167969 C 144.664062 265.472656 143.378906 264.742188 142.105469 263.980469 C 140.835938 263.21875 139.585938 262.425781 138.355469 261.605469 C 137.125 260.78125 135.914062 259.929688 134.722656 259.046875 C 133.535156 258.164062 132.367188 257.253906 131.222656 256.3125 C 130.078125 255.375 128.957031 254.40625 127.859375 253.414062 C 126.761719 252.417969 125.6875 251.398438 124.640625 250.351562 C 123.59375 249.300781 122.574219 248.230469 121.578125 247.132812 C 120.585938 246.035156 119.617188 244.914062 118.679688 243.769531 C 117.738281 242.625 116.828125 241.457031 115.945312 240.269531 C 115.0625 239.078125 114.210938 237.867188 113.386719 236.636719 C 112.566406 235.40625 111.773438 234.15625 111.011719 232.882812 C 110.25 231.613281 109.519531 230.324219 108.820312 229.019531 C 108.125 227.714844 107.457031 226.390625 106.824219 225.050781 C 106.191406 223.714844 105.59375 222.359375 105.023438 220.992188 C 104.457031 219.625 103.925781 218.242188 103.425781 216.847656 C 102.929688 215.453125 102.464844 214.046875 102.035156 212.628906 C 101.605469 211.214844 101.207031 209.785156 100.847656 208.351562 C 100.488281 206.914062 100.164062 205.46875 99.875 204.015625 C 99.585938 202.5625 99.332031 201.105469 99.117188 199.640625 C 98.898438 198.175781 98.71875 196.707031 98.574219 195.230469 C 98.425781 193.757812 98.320312 192.28125 98.246094 190.800781 C 98.171875 189.324219 98.136719 187.84375 98.136719 186.363281 C 98.136719 184.882812 98.171875 183.402344 98.246094 181.921875 C 98.320312 180.441406 98.425781 178.964844 98.574219 177.492188 C 98.71875 176.019531 98.898438 174.550781 99.117188 173.085938 C 99.332031 171.621094 99.585938 170.160156 99.875 168.707031 C 100.164062 167.253906 100.488281 165.8125 100.847656 164.375 C 101.207031 162.9375 101.605469 161.511719 102.035156 160.09375 C 102.464844 158.675781 102.929688 157.269531 103.425781 155.875 C 103.925781 154.480469 104.457031 153.101562 105.023438 151.734375 C 105.59375 150.363281 106.191406 149.011719 106.824219 147.671875 C 107.457031 146.332031 108.125 145.011719 108.820312 143.703125 C 109.519531 142.398438 110.25 141.109375 111.011719 139.839844 C 111.773438 138.570312 112.566406 137.320312 113.386719 136.085938 C 114.210938 134.855469 115.0625 133.644531 115.945312 132.457031 C 116.828125 131.265625 117.738281 130.097656 118.679688 128.953125 C 119.617188 127.808594 120.585938 126.6875 121.578125 125.589844 C 122.574219 124.492188 123.59375 123.421875 124.640625 122.375 C 125.6875 121.328125 126.761719 120.304688 127.859375 119.3125 C 128.957031 118.316406 130.078125 117.351562 131.222656 116.410156 C 132.367188 115.472656 133.535156 114.558594 134.722656 113.679688 C 135.914062 112.796875 137.125 111.945312 138.355469 111.121094 C 139.585938 110.296875 140.835938 109.507812 142.105469 108.746094 C 143.378906 107.984375 144.664062 107.253906 145.972656 106.554688 C 147.277344 105.855469 148.601562 105.191406 149.9375 104.558594 C 151.277344 103.925781 152.632812 103.324219 154 102.757812 C 155.367188 102.191406 156.75 101.660156 158.144531 101.160156 C 159.539062 100.660156 160.945312 100.195312 162.359375 99.765625 C 163.777344 99.335938 165.203125 98.941406 166.640625 98.582031 C 168.078125 98.222656 169.523438 97.898438 170.976562 97.609375 C 172.425781 97.320312 173.886719 97.066406 175.351562 96.847656 C 176.816406 96.632812 178.285156 96.449219 179.757812 96.304688 C 181.234375 96.160156 182.710938 96.050781 184.1875 95.980469 C 185.667969 95.90625 187.148438 95.871094 188.628906 95.871094 C 190.109375 95.871094 191.589844 95.90625 193.070312 95.980469 C 194.546875 96.050781 196.023438 96.160156 197.5 96.304688 C 198.972656 96.449219 200.441406 96.632812 201.90625 96.847656 C 203.371094 97.066406 204.832031 97.320312 206.285156 97.609375 C 207.734375 97.898438 209.179688 98.222656 210.617188 98.582031 C 212.054688 98.941406 213.480469 99.335938 214.898438 99.765625 C 216.316406 100.195312 217.71875 100.660156 219.113281 101.160156 C 220.507812 101.660156 221.890625 102.191406 223.257812 102.757812 C 224.628906 103.324219 225.980469 103.925781 227.320312 104.558594 C 228.660156 105.191406 229.980469 105.855469 231.285156 106.554688 C 232.59375 107.253906 233.882812 107.984375 235.152344 108.746094 C 236.421875 109.507812 237.671875 110.296875 238.902344 111.121094 C 240.136719 111.945312 241.347656 112.796875 242.535156 113.679688 C 243.726562 114.558594 244.890625 115.472656 246.035156 116.410156 C 247.183594 117.351562 248.300781 118.316406 249.398438 119.3125 C 250.496094 120.304688 251.570312 121.328125 252.617188 122.375 C 253.664062 123.421875 254.683594 124.492188 255.679688 125.589844 C 256.675781 126.6875 257.640625 127.808594 258.582031 128.953125 C 259.519531 130.097656 260.429688 131.265625 261.3125 132.457031 C 262.195312 133.644531 263.046875 134.855469 263.871094 136.085938 C 264.695312 137.320312 265.484375 138.570312 266.246094 139.839844 C 267.007812 141.109375 267.738281 142.398438 268.4375 143.703125 C 269.132812 145.011719 269.800781 146.332031 270.433594 147.671875 C 271.066406 149.011719 271.667969 150.363281 272.234375 151.730469 C 272.800781 153.101562 273.332031 154.480469 273.832031 155.875 C 274.332031 157.269531 274.792969 158.675781 275.226562 160.09375 C 275.65625 161.511719 276.050781 162.9375 276.410156 164.375 C 276.769531 165.8125 277.09375 167.253906 277.382812 168.707031 C 277.671875 170.160156 277.925781 171.621094 278.140625 173.085938 C 278.359375 174.550781 278.539062 176.019531 278.6875 177.492188 C 278.832031 178.964844 278.941406 180.441406 279.011719 181.921875 C 279.085938 183.402344 279.121094 184.882812 279.121094 186.363281 Z M 279.121094 186.363281 " fill-opacity="1" fill-rule="nonzero"/></g><g clip-path="url(#c58ae6cbe4)"><path fill="#f4f6ff" d="M 187.179688 48.6875 C 264.550781 48.6875 327.273438 111.40625 327.273438 188.777344 C 327.273438 266.148438 264.550781 328.871094 187.179688 328.871094 C 109.808594 328.871094 47.089844 266.148438 47.089844 188.777344 C 47.089844 111.40625 109.808594 48.6875 187.179688 48.6875 Z M 199.925781 74.859375 L 199.914062 86.894531 C 199.914062 93.925781 194.214844 99.628906 187.179688 99.628906 C 180.148438 99.628906 174.445312 93.925781 174.445312 86.894531 L 174.449219 74.855469 C 121.316406 80.726562 79.128906 122.914062 73.257812 176.046875 L 85.296875 176.042969 C 92.328125 176.042969 98.03125 181.746094 98.03125 188.777344 C 98.03125 195.8125 92.328125 201.515625 85.296875 201.515625 L 73.261719 201.523438 C 79.136719 254.648438 121.320312 296.828125 174.449219 302.699219 L 174.445312 290.664062 C 174.445312 283.628906 180.148438 277.929688 187.179688 277.929688 C 194.214844 277.929688 199.914062 283.628906 199.914062 290.664062 L 199.925781 302.699219 C 253.046875 296.824219 295.222656 254.644531 301.101562 201.523438 L 289.066406 201.515625 C 282.03125 201.515625 276.328125 195.8125 276.328125 188.777344 C 276.328125 181.746094 282.03125 176.042969 289.066406 176.042969 L 301.101562 176.046875 C 295.230469 122.917969 253.050781 80.734375 199.925781 74.859375 Z M 246.078125 115.15625 C 251.570312 119.550781 252.460938 127.5625 248.066406 133.054688 L 210.90625 179.496094 C 212.03125 182.371094 212.652344 185.503906 212.652344 188.777344 C 212.652344 202.84375 201.246094 214.25 187.179688 214.25 C 173.113281 214.25 161.707031 202.84375 161.707031 188.777344 C 161.707031 188.234375 161.726562 187.691406 161.761719 187.152344 L 141.910156 173.902344 C 136.054688 170.003906 134.476562 162.09375 138.375 156.242188 C 142.277344 150.390625 150.183594 148.808594 156.039062 152.710938 L 175.882812 165.941406 C 179.289062 164.253906 183.125 163.308594 187.179688 163.308594 C 188.484375 163.308594 189.769531 163.40625 191.019531 163.59375 L 228.175781 117.144531 C 232.570312 111.652344 240.585938 110.761719 246.078125 115.15625 Z M 246.078125 115.15625 " fill-opacity="1" fill-rule="nonzero"/></g></svg>