<svg xmlns="http://www.w3.org/2000/svg" xmlns:xlink="http://www.w3.org/1999/xlink" width="500" zoomAndPan="magnify" viewBox="0 0 375 374.999991" height="500" preserveAspectRatio="xMidYMid meet" version="1.0"><defs><clipPath id="545c34b864"><path d="M 5 5 L 370 5 L 370 370 L 5 370 Z M 5 5 " clip-rule="nonzero"/></clipPath><clipPath id="ec6e372b9f"><path d="M -83.628906 238.792969 L 238.8125 -83.648438 L 458.898438 136.4375 L 136.457031 458.878906 Z M -83.628906 238.792969 " clip-rule="nonzero"/></clipPath><clipPath id="3bccf23bb9"><path d="M -83.628906 238.792969 L 238.8125 -83.648438 L 458.898438 136.4375 L 136.457031 458.878906 Z M -83.628906 238.792969 " clip-rule="nonzero"/></clipPath><clipPath id="5c9bac4923"><path d="M 33 33 L 342 33 L 342 342 L 33 342 Z M 33 33 " clip-rule="nonzero"/></clipPath><clipPath id="8ceb359f1e"><path d="M -42.738281 231.058594 L 230.910156 -42.59375 L 417.585938 144.082031 L 143.9375 417.734375 Z M -42.738281 231.058594 " clip-rule="nonzero"/></clipPath><clipPath id="5926f3e62e"><path d="M -42.738281 231.058594 L 230.910156 -42.59375 L 417.585938 144.082031 L 143.9375 417.734375 Z M -42.738281 231.058594 " clip-rule="nonzero"/></clipPath><clipPath id="2c15da3d5b"><path d="M 41 41 L 334 41 L 334 334 L 41 334 Z M 41 41 " clip-rule="nonzero"/></clipPath><clipPath id="0eaa3bb388"><path d="M -19.238281 187.496094 L 187.589844 -19.332031 L 394.417969 187.496094 L 187.589844 394.328125 Z M -19.238281 187.496094 " clip-rule="nonzero"/></clipPath><clipPath id="8127e0027b"><path d="M -19.238281 187.496094 L 187.589844 -19.332031 L 394.417969 187.496094 L 187.589844 394.328125 Z M -19.238281 187.496094 " clip-rule="nonzero"/></clipPath><clipPath id="92cff8a15e"><path d="M -19.238281 187.496094 L 187.589844 -19.332031 L 394.417969 187.496094 L 187.589844 394.328125 Z M -19.238281 187.496094 " clip-rule="nonzero"/></clipPath><clipPath id="ea429ebab7"><path d="M 37 37 L 337.75 37 L 337.75 337.75 L 37 337.75 Z M 37 37 " clip-rule="nonzero"/></clipPath><clipPath id="d154673605"><path d="M 32 32 L 343 32 L 343 343 L 32 343 Z M 32 32 " clip-rule="nonzero"/></clipPath><clipPath id="25f1d1bf10"><path d="M -32.335938 187.496094 L 187.753906 -32.589844 L 407.839844 187.496094 L 187.753906 407.582031 Z M -32.335938 187.496094 " clip-rule="nonzero"/></clipPath><clipPath id="c1fee3bca8"><path d="M -32.335938 187.496094 L 187.753906 -32.589844 L 407.839844 187.496094 L 187.753906 407.582031 Z M -32.335938 187.496094 " clip-rule="nonzero"/></clipPath></defs><g clip-path="url(#545c34b864)"><g clip-path="url(#ec6e372b9f)"><g clip-path="url(#3bccf23bb9)"><path fill="#233dff" d="M 77.582031 77.582031 C 4.308594 150.859375 -12.695312 259.015625 26.289062 348.703125 C 115.980469 387.6875 224.136719 370.6875 297.414062 297.410156 C 370.691406 224.132812 387.691406 115.976562 348.707031 26.285156 C 259.015625 -12.695312 150.933594 4.230469 77.582031 77.582031 Z M 260.773438 260.773438 C 220.328125 301.222656 154.671875 301.222656 114.222656 260.773438 C 73.773438 220.324219 73.773438 154.667969 114.222656 114.21875 C 154.671875 73.769531 220.328125 73.769531 260.773438 114.21875 C 301.222656 154.667969 301.222656 220.324219 260.773438 260.773438 Z M 143.53125 143.53125 C 119.277344 167.785156 119.277344 207.207031 143.53125 231.460938 C 167.785156 255.714844 207.210938 255.714844 231.464844 231.460938 C 255.71875 207.207031 255.71875 167.785156 231.464844 143.53125 C 207.210938 119.273438 167.785156 119.273438 143.53125 143.53125 Z M 143.53125 143.53125 " fill-opacity="1" fill-rule="nonzero"/></g></g></g><g clip-path="url(#5c9bac4923)"><g clip-path="url(#8ceb359f1e)"><g clip-path="url(#5926f3e62e)"><path fill="#ffffff" d="M 94.160156 94.15625 C 31.933594 156.382812 17.5 248.226562 50.601562 324.390625 C 126.765625 357.496094 218.609375 343.058594 280.835938 280.832031 C 343.0625 218.609375 357.5 126.761719 324.394531 50.597656 C 248.230469 17.496094 156.449219 31.871094 94.160156 94.15625 Z M 249.722656 249.71875 C 215.375 284.070312 159.621094 284.070312 125.273438 249.71875 C 90.925781 215.371094 90.925781 159.617188 125.273438 125.269531 C 159.621094 90.921875 215.375 90.921875 249.722656 125.269531 C 284.074219 159.617188 284.074219 215.371094 249.722656 249.71875 Z M 150.164062 150.160156 C 129.566406 170.757812 129.566406 204.234375 150.164062 224.832031 C 170.761719 245.425781 204.238281 245.425781 224.832031 224.832031 C 245.429688 204.234375 245.429688 170.757812 224.832031 150.160156 C 204.238281 129.5625 170.761719 129.5625 150.164062 150.160156 Z M 150.164062 150.160156 " fill-opacity="1" fill-rule="nonzero"/></g></g></g><g clip-path="url(#2c15da3d5b)"><g clip-path="url(#0eaa3bb388)"><g clip-path="url(#8127e0027b)"><g clip-path="url(#92cff8a15e)"><path fill="#ffffff" d="M 291.003906 84.082031 C 292.695312 85.777344 294.34375 87.507812 295.953125 89.28125 C 297.558594 91.054688 299.125 92.867188 300.640625 94.71875 C 302.160156 96.566406 303.632812 98.453125 305.058594 100.375 C 306.484375 102.300781 307.863281 104.253906 309.191406 106.246094 C 310.519531 108.234375 311.800781 110.257812 313.03125 112.308594 C 314.261719 114.363281 315.441406 116.445312 316.570312 118.554688 C 317.699219 120.667969 318.773438 122.804688 319.796875 124.96875 C 320.820312 127.132812 321.789062 129.320312 322.707031 131.53125 C 323.621094 133.742188 324.484375 135.972656 325.289062 138.226562 C 326.097656 140.480469 326.847656 142.753906 327.542969 145.042969 C 328.234375 147.332031 328.875 149.640625 329.457031 151.960938 C 330.039062 154.285156 330.5625 156.617188 331.027344 158.964844 C 331.496094 161.3125 331.90625 163.671875 332.253906 166.039062 C 332.605469 168.40625 332.898438 170.78125 333.132812 173.164062 C 333.367188 175.542969 333.546875 177.929688 333.664062 180.320312 C 333.78125 182.710938 333.839844 185.105469 333.839844 187.496094 C 333.839844 189.890625 333.78125 192.28125 333.664062 194.671875 C 333.546875 197.0625 333.367188 199.449219 333.132812 201.832031 C 332.898438 204.214844 332.605469 206.589844 332.253906 208.957031 C 331.90625 211.324219 331.496094 213.683594 331.027344 216.03125 C 330.5625 218.378906 330.039062 220.710938 329.457031 223.035156 C 328.875 225.355469 328.234375 227.660156 327.542969 229.953125 C 326.847656 232.242188 326.097656 234.515625 325.289062 236.769531 C 324.484375 239.019531 323.621094 241.253906 322.707031 243.464844 C 321.789062 245.675781 320.820312 247.863281 319.796875 250.027344 C 318.773438 252.191406 317.699219 254.328125 316.570312 256.4375 C 315.441406 258.550781 314.261719 260.632812 313.03125 262.683594 C 311.800781 264.738281 310.519531 266.757812 309.191406 268.75 C 307.859375 270.738281 306.484375 272.695312 305.058594 274.617188 C 303.632812 276.542969 302.160156 278.425781 300.640625 280.277344 C 299.125 282.128906 297.558594 283.941406 295.953125 285.714844 C 294.34375 287.488281 292.695312 289.21875 291.003906 290.910156 C 289.3125 292.605469 287.578125 294.253906 285.804688 295.863281 C 284.03125 297.46875 282.21875 299.03125 280.367188 300.550781 C 278.519531 302.070312 276.632812 303.539062 274.710938 304.964844 C 272.789062 306.390625 270.832031 307.769531 268.839844 309.101562 C 266.851562 310.429688 264.828125 311.710938 262.777344 312.941406 C 260.722656 314.171875 258.640625 315.351562 256.53125 316.480469 C 254.417969 317.605469 252.28125 318.683594 250.117188 319.707031 C 247.953125 320.730469 245.765625 321.699219 243.554688 322.613281 C 241.34375 323.53125 239.113281 324.390625 236.859375 325.199219 C 234.605469 326.003906 232.332031 326.753906 230.042969 327.449219 C 227.753906 328.144531 225.445312 328.78125 223.125 329.363281 C 220.804688 329.945312 218.46875 330.46875 216.121094 330.9375 C 213.773438 331.40625 211.414062 331.8125 209.046875 332.164062 C 206.679688 332.515625 204.304688 332.808594 201.921875 333.042969 C 199.542969 333.277344 197.15625 333.453125 194.765625 333.570312 C 192.375 333.6875 189.980469 333.746094 187.589844 333.746094 C 185.195312 333.746094 182.804688 333.6875 180.414062 333.570312 C 178.023438 333.453125 175.636719 333.277344 173.253906 333.042969 C 170.871094 332.808594 168.496094 332.515625 166.128906 332.164062 C 163.761719 331.8125 161.402344 331.40625 159.058594 330.9375 C 156.710938 330.46875 154.375 329.945312 152.054688 329.363281 C 149.730469 328.78125 147.425781 328.144531 145.132812 327.449219 C 142.84375 326.753906 140.570312 326.003906 138.320312 325.199219 C 136.066406 324.390625 133.832031 323.53125 131.621094 322.613281 C 129.410156 321.699219 127.222656 320.730469 125.058594 319.707031 C 122.894531 318.683594 120.757812 317.605469 118.648438 316.480469 C 116.535156 315.351562 114.453125 314.171875 112.402344 312.941406 C 110.347656 311.710938 108.328125 310.429688 106.335938 309.101562 C 104.347656 307.769531 102.390625 306.390625 100.46875 304.964844 C 98.546875 303.539062 96.660156 302.070312 94.808594 300.550781 C 92.957031 299.03125 91.148438 297.46875 89.375 295.863281 C 87.601562 294.253906 85.867188 292.605469 84.175781 290.910156 C 82.480469 289.21875 80.832031 287.488281 79.226562 285.714844 C 77.617188 283.941406 76.054688 282.128906 74.535156 280.277344 C 73.015625 278.425781 71.546875 276.542969 70.121094 274.617188 C 68.695312 272.695312 67.316406 270.738281 65.984375 268.75 C 64.65625 266.757812 63.375 264.738281 62.144531 262.683594 C 60.914062 260.632812 59.734375 258.550781 58.609375 256.4375 C 57.480469 254.328125 56.402344 252.191406 55.378906 250.027344 C 54.355469 247.863281 53.386719 245.675781 52.472656 243.464844 C 51.554688 241.253906 50.695312 239.019531 49.886719 236.769531 C 49.082031 234.515625 48.332031 232.242188 47.636719 229.953125 C 46.941406 227.660156 46.304688 225.355469 45.722656 223.035156 C 45.140625 220.710938 44.617188 218.378906 44.148438 216.03125 C 43.683594 213.683594 43.273438 211.324219 42.921875 208.957031 C 42.570312 206.589844 42.277344 204.214844 42.042969 201.832031 C 41.808594 199.449219 41.632812 197.0625 41.515625 194.671875 C 41.398438 192.28125 41.339844 189.890625 41.339844 187.496094 C 41.339844 185.105469 41.398438 182.710938 41.515625 180.320312 C 41.632812 177.929688 41.808594 175.542969 42.042969 173.164062 C 42.277344 170.78125 42.570312 168.40625 42.921875 166.039062 C 43.273438 163.671875 43.683594 161.3125 44.148438 158.964844 C 44.617188 156.617188 45.140625 154.285156 45.722656 151.960938 C 46.304688 149.640625 46.941406 147.332031 47.636719 145.042969 C 48.332031 142.753906 49.082031 140.480469 49.886719 138.226562 C 50.695312 135.972656 51.554688 133.742188 52.472656 131.53125 C 53.386719 129.320312 54.355469 127.132812 55.378906 124.96875 C 56.402344 122.804688 57.480469 120.667969 58.609375 118.554688 C 59.734375 116.445312 60.914062 114.363281 62.144531 112.308594 C 63.375 110.257812 64.65625 108.234375 65.984375 106.246094 C 67.316406 104.253906 68.695312 102.300781 70.121094 100.375 C 71.546875 98.453125 73.015625 96.566406 74.535156 94.71875 C 76.054688 92.867188 77.617188 91.054688 79.226562 89.28125 C 80.832031 87.507812 82.480469 85.777344 84.175781 84.082031 C 85.867188 82.390625 87.601562 80.742188 89.375 79.132812 C 91.148438 77.527344 92.957031 75.964844 94.808594 74.445312 C 96.660156 72.925781 98.546875 71.453125 100.46875 70.027344 C 102.390625 68.601562 104.347656 67.226562 106.335938 65.894531 C 108.328125 64.566406 110.347656 63.285156 112.402344 62.054688 C 114.453125 60.824219 116.535156 59.644531 118.648438 58.515625 C 120.757812 57.386719 122.894531 56.3125 125.058594 55.289062 C 127.222656 54.265625 129.410156 53.296875 131.621094 52.378906 C 133.832031 51.464844 136.066406 50.601562 138.320312 49.796875 C 140.570312 48.992188 142.84375 48.238281 145.132812 47.546875 C 147.425781 46.851562 149.730469 46.210938 152.054688 45.628906 C 154.375 45.050781 156.710938 44.523438 159.058594 44.058594 C 161.402344 43.589844 163.761719 43.183594 166.128906 42.832031 C 168.496094 42.480469 170.871094 42.1875 173.253906 41.953125 C 175.636719 41.71875 178.023438 41.542969 180.414062 41.421875 C 182.804688 41.304688 185.195312 41.246094 187.589844 41.246094 C 189.980469 41.246094 192.375 41.304688 194.765625 41.421875 C 197.15625 41.542969 199.542969 41.71875 201.921875 41.953125 C 204.304688 42.1875 206.679688 42.480469 209.046875 42.832031 C 211.414062 43.183594 213.773438 43.589844 216.121094 44.058594 C 218.46875 44.523438 220.804688 45.050781 223.125 45.628906 C 225.445312 46.210938 227.753906 46.851562 230.042969 47.546875 C 232.332031 48.238281 234.605469 48.992188 236.859375 49.796875 C 239.113281 50.601562 241.34375 51.464844 243.554688 52.378906 C 245.765625 53.296875 247.953125 54.265625 250.117188 55.289062 C 252.28125 56.3125 254.417969 57.386719 256.53125 58.515625 C 258.640625 59.644531 260.722656 60.824219 262.777344 62.054688 C 264.828125 63.285156 266.851562 64.566406 268.839844 65.894531 C 270.832031 67.226562 272.789062 68.601562 274.710938 70.027344 C 276.632812 71.453125 278.519531 72.925781 280.367188 74.445312 C 282.21875 75.964844 284.03125 77.527344 285.804688 79.132812 C 287.578125 80.742188 289.3125 82.390625 291.003906 84.082031 Z M 291.003906 84.082031 " fill-opacity="1" fill-rule="nonzero"/></g></g></g></g><g clip-path="url(#ea429ebab7)"><path fill="#050a30" d="M 187.5 37 C 104.378906 37 37 104.378906 37 187.5 C 37 270.617188 104.378906 337.996094 187.5 337.996094 C 270.617188 337.996094 337.996094 270.617188 337.996094 187.5 C 337.996094 104.378906 270.617188 37 187.5 37 Z M 226.417969 247.699219 L 176.859375 198.136719 C 174.027344 195.308594 172.449219 191.488281 172.449219 187.5 L 172.449219 112.25 C 172.449219 103.941406 179.191406 97.199219 187.5 97.199219 C 195.804688 97.199219 202.546875 103.941406 202.546875 112.25 L 202.546875 181.265625 L 247.699219 226.417969 C 253.566406 232.285156 253.566406 241.828125 247.699219 247.699219 C 241.828125 253.566406 232.285156 253.566406 226.417969 247.699219 Z M 226.417969 247.699219 " fill-opacity="1" fill-rule="nonzero"/></g><g clip-path="url(#d154673605)"><g clip-path="url(#25f1d1bf10)"><g clip-path="url(#c1fee3bca8)"><path fill="#233dff" d="M 77.582031 77.582031 C 16.851562 138.308594 16.851562 236.683594 77.582031 297.410156 C 138.308594 358.140625 236.683594 358.140625 297.410156 297.410156 C 358.140625 236.683594 358.140625 138.308594 297.410156 77.582031 C 236.683594 16.851562 138.308594 16.851562 77.582031 77.582031 Z M 275.429688 275.429688 C 226.84375 324.011719 148.144531 324.011719 99.5625 275.429688 C 50.980469 226.84375 50.980469 148.144531 99.5625 99.5625 C 148.144531 50.980469 226.84375 50.980469 275.429688 99.5625 C 324.011719 148.144531 324.011719 226.84375 275.429688 275.429688 Z M 275.429688 275.429688 " fill-opacity="1" fill-rule="nonzero"/></g></g></g></svg>