<svg xmlns="http://www.w3.org/2000/svg" xmlns:xlink="http://www.w3.org/1999/xlink" width="500" zoomAndPan="magnify" viewBox="0 0 375 374.999991" height="500" preserveAspectRatio="xMidYMid meet" version="1.0"><defs><clipPath id="4c4f43e8bc"><path d="M 75 0 L 300 0 C 341.421875 0 375 33.578125 375 75 L 375 300 C 375 341.421875 341.421875 375 300 375 L 75 375 C 33.578125 375 0 341.421875 0 300 L 0 75 C 0 33.578125 33.578125 0 75 0 Z M 75 0 " clip-rule="nonzero"/></clipPath><clipPath id="9ad9917d02"><path d="M 86.046875 86.910156 L 289 86.910156 L 289 290 L 86.046875 290 Z M 86.046875 86.910156 " clip-rule="nonzero"/></clipPath><clipPath id="28d2ea5cce"><path d="M 109.15625 108.265625 L 265.15625 108.265625 L 265.15625 264.265625 L 109.15625 264.265625 Z M 109.15625 108.265625 " clip-rule="nonzero"/></clipPath><clipPath id="728b688180"><path d="M 104.449219 105.515625 L 270.199219 105.515625 L 270.199219 271.265625 L 104.449219 271.265625 Z M 104.449219 105.515625 " clip-rule="nonzero"/></clipPath><clipPath id="593799e239"><path d="M 145.210938 131.113281 L 246.460938 131.113281 L 246.460938 232.363281 L 145.210938 232.363281 Z M 145.210938 131.113281 " clip-rule="nonzero"/></clipPath><clipPath id="11cc38bf59"><path d="M 146 136.453125 L 237.460938 136.453125 L 237.460938 206.953125 L 146 206.953125 Z M 146 136.453125 " clip-rule="nonzero"/></clipPath></defs><g clip-path="url(#4c4f43e8bc)"><rect x="-37.5" width="450" fill="#f4f6ff" y="-37.499999" height="449.999989" fill-opacity="1"/></g><path fill="#233dff" d="M 189.566406 289.671875 C 126.617188 289.671875 64.679688 258.269531 5.476562 196.332031 L -0.410156 190.171875 L 4.898438 183.511719 C 8.035156 179.570312 82.957031 87.042969 190.074219 87.042969 C 253.1875 87.042969 313.621094 119.378906 369.699219 183.144531 L 374.988281 189.160156 L 370.117188 195.519531 C 367.175781 199.367188 296.796875 289.671875 189.566406 289.671875 Z M 25.789062 189.210938 C 79.230469 242.933594 134.292969 270.160156 189.566406 270.160156 C 271.75 270.160156 331.996094 209.566406 349.453125 189.800781 C 298.878906 134.5625 245.289062 106.558594 190.074219 106.558594 C 107.96875 106.558594 44.480469 168.722656 25.789062 189.210938 Z M 25.789062 189.210938 " fill-opacity="1" fill-rule="nonzero"/><path fill="#233dff" d="M 187.453125 126.054688 C 153.042969 126.054688 125.148438 153.949219 125.148438 188.359375 C 125.148438 222.765625 153.042969 250.660156 187.453125 250.660156 C 221.859375 250.660156 249.753906 222.765625 249.753906 188.359375 C 249.753906 153.949219 221.859375 126.054688 187.453125 126.054688 Z M 187.453125 214.507812 C 173.011719 214.507812 161.304688 202.800781 161.304688 188.359375 C 161.304688 173.917969 173.011719 162.210938 187.453125 162.210938 C 201.894531 162.210938 213.597656 173.917969 213.597656 188.359375 C 213.597656 202.800781 201.894531 214.507812 187.453125 214.507812 Z M 187.453125 214.507812 " fill-opacity="1" fill-rule="nonzero"/><g clip-path="url(#9ad9917d02)"><path fill="#233dff" d="M 288.945312 188.359375 C 288.945312 190.019531 288.90625 191.679688 288.824219 193.335938 C 288.742188 194.996094 288.621094 196.648438 288.457031 198.300781 C 288.296875 199.953125 288.09375 201.601562 287.847656 203.246094 C 287.605469 204.886719 287.320312 206.523438 286.996094 208.152344 C 286.671875 209.777344 286.308594 211.398438 285.90625 213.007812 C 285.503906 214.621094 285.058594 216.21875 284.578125 217.808594 C 284.097656 219.398438 283.574219 220.972656 283.015625 222.535156 C 282.457031 224.097656 281.859375 225.648438 281.222656 227.179688 C 280.589844 228.714844 279.917969 230.234375 279.207031 231.734375 C 278.496094 233.234375 277.75 234.71875 276.96875 236.179688 C 276.183594 237.644531 275.367188 239.089844 274.511719 240.515625 C 273.660156 241.9375 272.773438 243.339844 271.847656 244.722656 C 270.925781 246.101562 269.972656 247.457031 268.980469 248.792969 C 267.992188 250.125 266.972656 251.433594 265.917969 252.71875 C 264.867188 254 263.78125 255.257812 262.667969 256.488281 C 261.550781 257.71875 260.40625 258.921875 259.234375 260.09375 C 258.058594 261.269531 256.855469 262.414062 255.625 263.527344 C 254.394531 264.644531 253.140625 265.726562 251.855469 266.78125 C 250.574219 267.832031 249.265625 268.855469 247.929688 269.84375 C 246.597656 270.832031 245.238281 271.789062 243.859375 272.710938 C 242.480469 273.632812 241.078125 274.519531 239.652344 275.375 C 238.230469 276.226562 236.785156 277.046875 235.320312 277.828125 C 233.855469 278.613281 232.375 279.359375 230.871094 280.066406 C 229.371094 280.777344 227.855469 281.449219 226.320312 282.085938 C 224.785156 282.722656 223.238281 283.316406 221.675781 283.878906 C 220.113281 284.4375 218.535156 284.957031 216.945312 285.441406 C 215.359375 285.921875 213.757812 286.363281 212.148438 286.765625 C 210.535156 287.171875 208.917969 287.535156 207.289062 287.859375 C 205.660156 288.183594 204.027344 288.464844 202.382812 288.710938 C 200.742188 288.953125 199.09375 289.15625 197.441406 289.320312 C 195.789062 289.480469 194.132812 289.605469 192.476562 289.6875 C 190.816406 289.765625 189.15625 289.808594 187.496094 289.808594 C 185.835938 289.808594 184.179688 289.765625 182.519531 289.6875 C 180.863281 289.605469 179.207031 289.480469 177.554688 289.320312 C 175.902344 289.15625 174.253906 288.953125 172.613281 288.710938 C 170.96875 288.464844 169.335938 288.183594 167.707031 287.859375 C 166.078125 287.535156 164.457031 287.171875 162.847656 286.765625 C 161.238281 286.363281 159.636719 285.921875 158.046875 285.441406 C 156.460938 284.957031 154.882812 284.4375 153.320312 283.878906 C 151.757812 283.316406 150.207031 282.722656 148.675781 282.085938 C 147.140625 281.449219 145.625 280.777344 144.121094 280.066406 C 142.621094 279.359375 141.140625 278.613281 139.675781 277.828125 C 138.210938 277.046875 136.765625 276.226562 135.34375 275.375 C 133.917969 274.519531 132.515625 273.632812 131.136719 272.710938 C 129.753906 271.789062 128.398438 270.832031 127.0625 269.84375 C 125.730469 268.855469 124.421875 267.832031 123.140625 266.78125 C 121.855469 265.726562 120.597656 264.640625 119.367188 263.527344 C 118.136719 262.414062 116.9375 261.269531 115.761719 260.09375 C 114.589844 258.921875 113.445312 257.71875 112.328125 256.488281 C 111.214844 255.257812 110.128906 254 109.078125 252.71875 C 108.023438 251.433594 107 250.125 106.011719 248.792969 C 105.023438 247.457031 104.066406 246.101562 103.144531 244.722656 C 102.222656 243.339844 101.335938 241.9375 100.480469 240.515625 C 99.628906 239.089844 98.808594 237.644531 98.027344 236.179688 C 97.246094 234.71875 96.5 233.234375 95.789062 231.734375 C 95.078125 230.234375 94.40625 228.714844 93.769531 227.179688 C 93.136719 225.648438 92.539062 224.097656 91.980469 222.535156 C 91.417969 220.972656 90.898438 219.398438 90.417969 217.808594 C 89.933594 216.21875 89.492188 214.621094 89.089844 213.007812 C 88.683594 211.398438 88.320312 209.777344 87.996094 208.152344 C 87.671875 206.523438 87.390625 204.886719 87.144531 203.246094 C 86.902344 201.601562 86.699219 199.953125 86.535156 198.300781 C 86.375 196.648438 86.253906 194.996094 86.171875 193.335938 C 86.089844 191.679688 86.046875 190.019531 86.046875 188.359375 C 86.046875 186.699219 86.089844 185.039062 86.171875 183.378906 C 86.253906 181.722656 86.375 180.066406 86.535156 178.414062 C 86.699219 176.761719 86.902344 175.117188 87.144531 173.472656 C 87.390625 171.832031 87.671875 170.195312 87.996094 168.566406 C 88.320312 166.9375 88.683594 165.320312 89.089844 163.707031 C 89.492188 162.097656 89.933594 160.5 90.417969 158.910156 C 90.898438 157.320312 91.417969 155.746094 91.980469 154.179688 C 92.539062 152.617188 93.136719 151.070312 93.769531 149.535156 C 94.40625 148 95.078125 146.484375 95.789062 144.984375 C 96.5 143.484375 97.246094 142 98.027344 140.535156 C 98.808594 139.070312 99.628906 137.628906 100.480469 136.203125 C 101.335938 134.78125 102.222656 133.378906 103.144531 131.996094 C 104.066406 130.617188 105.023438 129.257812 106.011719 127.925781 C 107 126.59375 108.023438 125.285156 109.078125 124 C 110.128906 122.714844 111.214844 121.460938 112.328125 120.230469 C 113.445312 119 114.589844 117.796875 115.761719 116.625 C 116.9375 115.449219 118.136719 114.304688 119.367188 113.191406 C 120.597656 112.074219 121.855469 110.992188 123.140625 109.9375 C 124.421875 108.882812 125.730469 107.863281 127.0625 106.875 C 128.398438 105.886719 129.753906 104.929688 131.136719 104.007812 C 132.515625 103.085938 133.917969 102.195312 135.34375 101.34375 C 136.765625 100.488281 138.210938 99.671875 139.675781 98.886719 C 141.140625 98.105469 142.621094 97.359375 144.121094 96.648438 C 145.625 95.941406 147.140625 95.265625 148.675781 94.632812 C 150.207031 93.996094 151.757812 93.398438 153.320312 92.839844 C 154.882812 92.28125 156.460938 91.761719 158.046875 91.277344 C 159.636719 90.796875 161.238281 90.351562 162.847656 89.949219 C 164.457031 89.546875 166.078125 89.183594 167.707031 88.859375 C 169.335938 88.535156 170.96875 88.25 172.613281 88.007812 C 174.253906 87.765625 175.902344 87.5625 177.554688 87.398438 C 179.207031 87.234375 180.863281 87.113281 182.519531 87.03125 C 184.179688 86.949219 185.835938 86.910156 187.496094 86.910156 C 189.15625 86.910156 190.816406 86.949219 192.476562 87.03125 C 194.132812 87.113281 195.789062 87.234375 197.441406 87.398438 C 199.09375 87.5625 200.742188 87.765625 202.382812 88.007812 C 204.027344 88.25 205.660156 88.535156 207.289062 88.859375 C 208.917969 89.183594 210.535156 89.546875 212.148438 89.949219 C 213.757812 90.351562 215.359375 90.796875 216.945312 91.277344 C 218.535156 91.761719 220.113281 92.28125 221.675781 92.839844 C 223.238281 93.398438 224.785156 93.996094 226.320312 94.632812 C 227.855469 95.265625 229.371094 95.941406 230.871094 96.648438 C 232.375 97.359375 233.855469 98.105469 235.320312 98.886719 C 236.785156 99.671875 238.230469 100.488281 239.652344 101.34375 C 241.078125 102.195312 242.480469 103.085938 243.859375 104.007812 C 245.238281 104.929688 246.597656 105.886719 247.929688 106.875 C 249.265625 107.863281 250.574219 108.882812 251.855469 109.9375 C 253.140625 110.992188 254.394531 112.074219 255.625 113.191406 C 256.855469 114.304688 258.058594 115.449219 259.234375 116.625 C 260.40625 117.796875 261.550781 119 262.667969 120.230469 C 263.78125 121.460938 264.867188 122.714844 265.917969 124 C 266.972656 125.285156 267.992188 126.59375 268.980469 127.925781 C 269.972656 129.257812 270.925781 130.617188 271.847656 131.996094 C 272.773438 133.378906 273.660156 134.78125 274.511719 136.203125 C 275.367188 137.628906 276.183594 139.070312 276.96875 140.535156 C 277.75 142 278.496094 143.484375 279.207031 144.984375 C 279.917969 146.484375 280.589844 148 281.222656 149.535156 C 281.859375 151.070312 282.457031 152.617188 283.015625 154.179688 C 283.574219 155.746094 284.097656 157.320312 284.578125 158.910156 C 285.058594 160.5 285.503906 162.097656 285.90625 163.707031 C 286.308594 165.320312 286.671875 166.9375 286.996094 168.566406 C 287.320312 170.195312 287.605469 171.832031 287.847656 173.472656 C 288.09375 175.117188 288.296875 176.761719 288.457031 178.414062 C 288.621094 180.066406 288.742188 181.722656 288.824219 183.378906 C 288.90625 185.039062 288.945312 186.699219 288.945312 188.359375 Z M 288.945312 188.359375 " fill-opacity="1" fill-rule="nonzero"/></g><g clip-path="url(#28d2ea5cce)"><path fill="#f4f6ff" d="M 265.425781 186.398438 C 265.425781 187.675781 265.394531 188.957031 265.332031 190.234375 C 265.269531 191.511719 265.175781 192.785156 265.050781 194.058594 C 264.925781 195.328125 264.769531 196.597656 264.582031 197.863281 C 264.394531 199.128906 264.175781 200.386719 263.925781 201.640625 C 263.675781 202.894531 263.394531 204.144531 263.085938 205.382812 C 262.773438 206.625 262.433594 207.855469 262.0625 209.082031 C 261.691406 210.304688 261.289062 211.519531 260.859375 212.722656 C 260.429688 213.925781 259.96875 215.117188 259.480469 216.300781 C 258.988281 217.480469 258.472656 218.648438 257.925781 219.804688 C 257.378906 220.960938 256.804688 222.105469 256.199219 223.230469 C 255.597656 224.359375 254.96875 225.472656 254.308594 226.566406 C 253.652344 227.664062 252.96875 228.746094 252.257812 229.808594 C 251.546875 230.871094 250.8125 231.917969 250.050781 232.945312 C 249.289062 233.972656 248.5 234.980469 247.691406 235.96875 C 246.878906 236.957031 246.042969 237.921875 245.1875 238.871094 C 244.328125 239.820312 243.445312 240.746094 242.542969 241.648438 C 241.636719 242.550781 240.710938 243.433594 239.765625 244.292969 C 238.816406 245.152344 237.847656 245.988281 236.859375 246.796875 C 235.871094 247.609375 234.863281 248.394531 233.835938 249.15625 C 232.808594 249.917969 231.765625 250.65625 230.699219 251.367188 C 229.636719 252.074219 228.558594 252.761719 227.460938 253.417969 C 226.363281 254.074219 225.25 254.703125 224.125 255.308594 C 222.996094 255.910156 221.855469 256.484375 220.699219 257.03125 C 219.542969 257.578125 218.375 258.097656 217.191406 258.585938 C 216.011719 259.074219 214.820312 259.535156 213.613281 259.964844 C 212.410156 260.398438 211.195312 260.796875 209.972656 261.167969 C 208.75 261.539062 207.515625 261.882812 206.277344 262.191406 C 205.035156 262.503906 203.789062 262.78125 202.535156 263.03125 C 201.28125 263.28125 200.019531 263.5 198.757812 263.6875 C 197.492188 263.875 196.222656 264.03125 194.949219 264.15625 C 193.675781 264.28125 192.402344 264.375 191.125 264.441406 C 189.847656 264.503906 188.570312 264.535156 187.292969 264.535156 C 186.011719 264.535156 184.734375 264.503906 183.457031 264.441406 C 182.179688 264.375 180.90625 264.28125 179.632812 264.15625 C 178.359375 264.03125 177.089844 263.875 175.828125 263.6875 C 174.5625 263.5 173.300781 263.28125 172.046875 263.03125 C 170.792969 262.78125 169.546875 262.503906 168.304688 262.191406 C 167.066406 261.882812 165.832031 261.539062 164.609375 261.167969 C 163.386719 260.796875 162.171875 260.398438 160.96875 259.964844 C 159.765625 259.535156 158.570312 259.074219 157.390625 258.585938 C 156.210938 258.097656 155.039062 257.578125 153.882812 257.03125 C 152.730469 256.484375 151.585938 255.910156 150.460938 255.308594 C 149.332031 254.703125 148.21875 254.074219 147.121094 253.417969 C 146.027344 252.761719 144.945312 252.074219 143.882812 251.367188 C 142.820312 250.65625 141.773438 249.917969 140.746094 249.15625 C 139.71875 248.394531 138.710938 247.609375 137.722656 246.796875 C 136.734375 245.988281 135.765625 245.152344 134.820312 244.292969 C 133.871094 243.433594 132.945312 242.550781 132.042969 241.648438 C 131.136719 240.746094 130.257812 239.820312 129.398438 238.871094 C 128.539062 237.921875 127.703125 236.957031 126.894531 235.96875 C 126.082031 234.980469 125.292969 233.972656 124.53125 232.945312 C 123.769531 231.917969 123.035156 230.871094 122.324219 229.808594 C 121.613281 228.746094 120.929688 227.664062 120.273438 226.566406 C 119.617188 225.472656 118.984375 224.359375 118.382812 223.230469 C 117.78125 222.105469 117.207031 220.960938 116.660156 219.804688 C 116.113281 218.648438 115.59375 217.480469 115.105469 216.300781 C 114.613281 215.117188 114.15625 213.925781 113.722656 212.722656 C 113.292969 211.519531 112.890625 210.304688 112.519531 209.082031 C 112.148438 207.855469 111.808594 206.625 111.5 205.382812 C 111.1875 204.144531 110.90625 202.894531 110.65625 201.640625 C 110.410156 200.386719 110.191406 199.128906 110.003906 197.863281 C 109.816406 196.597656 109.660156 195.328125 109.53125 194.058594 C 109.40625 192.785156 109.3125 191.511719 109.25 190.234375 C 109.1875 188.957031 109.15625 187.675781 109.15625 186.398438 C 109.15625 185.121094 109.1875 183.84375 109.25 182.566406 C 109.3125 181.289062 109.40625 180.011719 109.53125 178.742188 C 109.660156 177.46875 109.816406 176.199219 110.003906 174.933594 C 110.191406 173.667969 110.410156 172.410156 110.65625 171.15625 C 110.90625 169.902344 111.1875 168.652344 111.5 167.414062 C 111.808594 166.171875 112.148438 164.941406 112.519531 163.71875 C 112.890625 162.492188 113.292969 161.28125 113.722656 160.074219 C 114.15625 158.871094 114.613281 157.679688 115.105469 156.496094 C 115.59375 155.316406 116.113281 154.148438 116.660156 152.992188 C 117.207031 151.835938 117.78125 150.695312 118.382812 149.566406 C 118.984375 148.4375 119.617188 147.328125 120.273438 146.230469 C 120.929688 145.132812 121.613281 144.050781 122.324219 142.988281 C 123.035156 141.925781 123.769531 140.882812 124.53125 139.855469 C 125.292969 138.828125 126.082031 137.820312 126.894531 136.832031 C 127.703125 135.84375 128.539062 134.875 129.398438 133.925781 C 130.257812 132.980469 131.136719 132.054688 132.042969 131.148438 C 132.945312 130.246094 133.871094 129.363281 134.820312 128.503906 C 135.765625 127.644531 136.734375 126.8125 137.722656 126 C 138.710938 125.1875 139.71875 124.402344 140.746094 123.640625 C 141.773438 122.878906 142.820312 122.144531 143.882812 121.433594 C 144.945312 120.722656 146.027344 120.039062 147.121094 119.378906 C 148.21875 118.722656 149.332031 118.09375 150.460938 117.488281 C 151.585938 116.886719 152.730469 116.3125 153.882812 115.765625 C 155.039062 115.21875 156.210938 114.699219 157.390625 114.210938 C 158.570312 113.722656 159.765625 113.261719 160.96875 112.832031 C 162.171875 112.402344 163.386719 112 164.609375 111.628906 C 165.832031 111.257812 167.066406 110.917969 168.304688 110.605469 C 169.546875 110.296875 170.792969 110.015625 172.046875 109.765625 C 173.300781 109.515625 174.5625 109.296875 175.828125 109.109375 C 177.089844 108.921875 178.359375 108.765625 179.632812 108.640625 C 180.90625 108.515625 182.179688 108.421875 183.457031 108.359375 C 184.734375 108.296875 186.011719 108.265625 187.292969 108.265625 C 188.570312 108.265625 189.847656 108.296875 191.125 108.359375 C 192.402344 108.421875 193.675781 108.515625 194.949219 108.640625 C 196.222656 108.765625 197.492188 108.921875 198.757812 109.109375 C 200.019531 109.296875 201.28125 109.515625 202.535156 109.765625 C 203.789062 110.015625 205.035156 110.296875 206.277344 110.605469 C 207.515625 110.917969 208.75 111.257812 209.972656 111.628906 C 211.195312 112 212.410156 112.402344 213.613281 112.832031 C 214.820312 113.261719 216.011719 113.722656 217.191406 114.210938 C 218.375 114.699219 219.542969 115.21875 220.699219 115.765625 C 221.855469 116.3125 222.996094 116.886719 224.125 117.488281 C 225.25 118.09375 226.363281 118.722656 227.460938 119.378906 C 228.558594 120.039062 229.636719 120.722656 230.699219 121.433594 C 231.765625 122.144531 232.808594 122.878906 233.835938 123.640625 C 234.863281 124.402344 235.871094 125.1875 236.859375 126 C 237.847656 126.8125 238.816406 127.644531 239.765625 128.503906 C 240.710938 129.363281 241.636719 130.246094 242.542969 131.148438 C 243.445312 132.054688 244.328125 132.980469 245.1875 133.925781 C 246.042969 134.875 246.878906 135.84375 247.691406 136.832031 C 248.5 137.820312 249.289062 138.828125 250.050781 139.855469 C 250.8125 140.882812 251.546875 141.925781 252.257812 142.988281 C 252.96875 144.050781 253.652344 145.132812 254.308594 146.230469 C 254.96875 147.328125 255.597656 148.4375 256.199219 149.566406 C 256.804688 150.695312 257.378906 151.835938 257.925781 152.992188 C 258.472656 154.148438 258.988281 155.316406 259.480469 156.496094 C 259.96875 157.679688 260.429688 158.871094 260.859375 160.074219 C 261.289062 161.28125 261.691406 162.492188 262.0625 163.71875 C 262.433594 164.941406 262.773438 166.171875 263.085938 167.414062 C 263.394531 168.652344 263.675781 169.902344 263.925781 171.15625 C 264.175781 172.410156 264.394531 173.667969 264.582031 174.933594 C 264.769531 176.199219 264.925781 177.46875 265.050781 178.742188 C 265.175781 180.011719 265.269531 181.289062 265.332031 182.566406 C 265.394531 183.84375 265.425781 185.121094 265.425781 186.398438 Z M 265.425781 186.398438 " fill-opacity="1" fill-rule="nonzero"/></g><g clip-path="url(#728b688180)"><path fill="#233dff" d="M 187.28125 105.453125 C 141.582031 105.453125 104.402344 142.628906 104.402344 188.332031 C 104.402344 234.03125 141.582031 271.207031 187.28125 271.207031 C 232.980469 271.207031 270.15625 234.027344 270.15625 188.328125 C 270.15625 142.628906 232.980469 105.453125 187.28125 105.453125 Z M 251.277344 191.210938 L 264.324219 191.210938 C 262.839844 231.445312 230.394531 263.886719 190.160156 265.375 L 190.160156 252.328125 C 190.160156 250.734375 188.871094 249.449219 187.28125 249.449219 C 185.691406 249.449219 184.402344 250.734375 184.402344 252.328125 L 184.402344 265.375 C 144.167969 263.886719 111.722656 231.445312 110.234375 191.210938 L 123.28125 191.210938 C 124.871094 191.210938 126.164062 189.921875 126.164062 188.332031 C 126.164062 186.738281 124.871094 185.449219 123.28125 185.449219 L 110.234375 185.449219 C 111.722656 145.214844 144.164062 112.773438 184.402344 111.285156 L 184.402344 124.332031 C 184.402344 125.925781 185.691406 127.210938 187.28125 127.210938 C 188.871094 127.210938 190.160156 125.925781 190.160156 124.332031 L 190.160156 111.285156 C 230.394531 112.773438 262.835938 145.214844 264.324219 185.449219 L 251.277344 185.449219 C 249.691406 185.449219 248.398438 186.738281 248.398438 188.332031 C 248.398438 189.921875 249.691406 191.210938 251.277344 191.210938 Z M 251.277344 191.210938 " fill-opacity="1" fill-rule="nonzero"/></g><path fill="#233dff" d="M 225.242188 146.292969 L 187.28125 184.257812 L 173.316406 170.292969 C 172.191406 169.167969 170.371094 169.167969 169.246094 170.292969 C 168.121094 171.417969 168.121094 173.242188 169.246094 174.367188 L 185.246094 190.367188 C 185.808594 190.929688 186.546875 191.207031 187.285156 191.207031 C 188.019531 191.207031 188.757812 190.929688 189.320312 190.367188 L 229.320312 150.367188 C 230.445312 149.242188 230.445312 147.417969 229.320312 146.292969 C 228.191406 145.167969 226.367188 145.167969 225.242188 146.292969 Z M 225.242188 146.292969 " fill-opacity="1" fill-rule="nonzero"/><g clip-path="url(#593799e239)"><path fill="#f4f6ff" d="M 246.660156 181.839844 C 246.660156 183.5 246.582031 185.15625 246.417969 186.808594 C 246.253906 188.464844 246.011719 190.105469 245.6875 191.734375 C 245.363281 193.363281 244.960938 194.972656 244.476562 196.5625 C 243.996094 198.152344 243.4375 199.714844 242.800781 201.25 C 242.164062 202.785156 241.457031 204.285156 240.671875 205.75 C 239.890625 207.214844 239.035156 208.636719 238.113281 210.019531 C 237.191406 211.402344 236.203125 212.734375 235.148438 214.015625 C 234.09375 215.300781 232.980469 216.53125 231.804688 217.707031 C 230.628906 218.878906 229.402344 219.996094 228.117188 221.046875 C 226.832031 222.101562 225.5 223.089844 224.117188 224.015625 C 222.738281 224.9375 221.3125 225.789062 219.847656 226.574219 C 218.382812 227.355469 216.882812 228.066406 215.347656 228.703125 C 213.8125 229.335938 212.25 229.894531 210.660156 230.378906 C 209.070312 230.859375 207.460938 231.265625 205.832031 231.589844 C 204.203125 231.910156 202.5625 232.15625 200.910156 232.320312 C 199.253906 232.480469 197.597656 232.5625 195.9375 232.5625 C 194.277344 232.5625 192.617188 232.480469 190.964844 232.320312 C 189.3125 232.15625 187.671875 231.910156 186.042969 231.589844 C 184.410156 231.265625 182.800781 230.859375 181.210938 230.378906 C 179.621094 229.894531 178.058594 229.335938 176.527344 228.703125 C 174.992188 228.066406 173.492188 227.355469 172.027344 226.574219 C 170.5625 225.789062 169.136719 224.9375 167.757812 224.015625 C 166.375 223.089844 165.042969 222.101562 163.757812 221.046875 C 162.472656 219.996094 161.242188 218.878906 160.070312 217.707031 C 158.894531 216.53125 157.78125 215.300781 156.726562 214.015625 C 155.671875 212.734375 154.683594 211.402344 153.761719 210.019531 C 152.839844 208.636719 151.984375 207.214844 151.203125 205.75 C 150.417969 204.285156 149.710938 202.785156 149.074219 201.25 C 148.4375 199.714844 147.878906 198.152344 147.398438 196.5625 C 146.914062 194.972656 146.511719 193.363281 146.1875 191.734375 C 145.863281 190.105469 145.621094 188.464844 145.457031 186.808594 C 145.292969 185.15625 145.210938 183.5 145.210938 181.839844 C 145.210938 180.175781 145.292969 178.519531 145.457031 176.867188 C 145.621094 175.210938 145.863281 173.570312 146.1875 171.941406 C 146.511719 170.3125 146.914062 168.703125 147.398438 167.113281 C 147.878906 165.523438 148.4375 163.960938 149.074219 162.425781 C 149.710938 160.890625 150.417969 159.390625 151.203125 157.925781 C 151.984375 156.460938 152.839844 155.039062 153.761719 153.65625 C 154.683594 152.277344 155.671875 150.941406 156.726562 149.660156 C 157.78125 148.375 158.894531 147.144531 160.070312 145.96875 C 161.242188 144.796875 162.472656 143.679688 163.757812 142.628906 C 165.042969 141.574219 166.375 140.585938 167.757812 139.660156 C 169.136719 138.738281 170.5625 137.886719 172.027344 137.101562 C 173.492188 136.320312 174.992188 135.609375 176.527344 134.972656 C 178.058594 134.339844 179.621094 133.78125 181.210938 133.296875 C 182.800781 132.816406 184.410156 132.414062 186.042969 132.089844 C 187.671875 131.765625 189.3125 131.519531 190.964844 131.359375 C 192.617188 131.195312 194.277344 131.113281 195.9375 131.113281 C 197.597656 131.113281 199.253906 131.195312 200.910156 131.359375 C 202.5625 131.519531 204.203125 131.765625 205.832031 132.089844 C 207.460938 132.414062 209.070312 132.816406 210.660156 133.296875 C 212.25 133.78125 213.8125 134.339844 215.347656 134.972656 C 216.882812 135.609375 218.382812 136.320312 219.847656 137.101562 C 221.3125 137.886719 222.738281 138.738281 224.117188 139.660156 C 225.5 140.585938 226.832031 141.574219 228.117188 142.628906 C 229.402344 143.679688 230.628906 144.796875 231.804688 145.96875 C 232.980469 147.144531 234.09375 148.375 235.148438 149.660156 C 236.203125 150.941406 237.191406 152.277344 238.113281 153.65625 C 239.035156 155.039062 239.890625 156.460938 240.671875 157.925781 C 241.457031 159.390625 242.164062 160.890625 242.800781 162.425781 C 243.4375 163.960938 243.996094 165.523438 244.476562 167.113281 C 244.960938 168.703125 245.363281 170.3125 245.6875 171.941406 C 246.011719 173.570312 246.253906 175.210938 246.417969 176.867188 C 246.582031 178.519531 246.660156 180.175781 246.660156 181.839844 Z M 246.660156 181.839844 " fill-opacity="1" fill-rule="nonzero"/></g><g clip-path="url(#11cc38bf59)"><path fill="#233dff" d="M 175.167969 206.671875 C 172.527344 206.671875 170.269531 205.703125 168.265625 203.714844 C 160.226562 195.730469 159.011719 194.496094 151.140625 186.609375 L 148.878906 184.34375 C 145.652344 181.105469 145.289062 175.566406 148.066406 171.988281 C 150 169.496094 152.363281 168.339844 155.492188 168.339844 C 155.699219 168.339844 155.917969 168.34375 156.132812 168.355469 C 158.5 168.472656 160.433594 169.285156 162.050781 170.832031 C 166.1875 174.800781 163.378906 172.027344 167.367188 176.046875 C 169.15625 177.851562 171.011719 179.71875 172.84375 181.550781 C 173.792969 182.496094 174.878906 182.980469 176.074219 182.980469 C 176.859375 182.980469 178.296875 182.75 179.460938 181.296875 C 179.496094 181.261719 179.535156 181.226562 179.566406 181.195312 C 179.566406 181.195312 206.535156 154.222656 219.546875 141.21875 C 221.882812 138.882812 224.433594 137.425781 227.335938 136.765625 C 228.246094 136.5625 229.117188 136.457031 229.9375 136.457031 C 230.757812 136.457031 231.589844 136.5625 232.375 136.789062 C 235.585938 137.699219 237.609375 140.363281 237.664062 143.742188 C 237.664062 143.863281 237.664062 143.984375 237.664062 144.105469 L 237.664062 144.289062 C 237.601562 147.558594 236.425781 150.527344 234.070312 153.367188 C 233.597656 153.9375 233.039062 154.5 232.507812 155.035156 C 210.785156 176.765625 204.132812 183.417969 185.578125 201.964844 C 183.082031 204.457031 180.382812 205.933594 177.328125 206.476562 C 176.582031 206.609375 175.851562 206.675781 175.160156 206.675781 Z M 175.167969 206.671875 " fill-opacity="1" fill-rule="nonzero"/></g></svg>